<svg xmlns="http://www.w3.org/2000/svg" width="200" height="64" viewBox="0 0 200 64"><g fill="none"><path fill="#221F20" d="M49.225 1.116v-.969c23.274 1.219 40.322 15.38 40.316 31.582-.006 18.499-20.068 31.692-44.811 31.673-24.742-.017-44.686-14.226-44.68-31.736.007-18.371 17.434-31.636 47.135-31.615l-.008 22.822-7.021-.144c-15.045.52-32.47 7.07-32.473 15.884-.004 9.696 16.535 21.363 36.394 21.377 16.063.011 29.183-11.635 29.189-29.147.006-18.739-11.247-26.862-24.041-29.727z"/><path stroke="#221F20" stroke-width=".5" d="M73.266 30.842c.006-18.739-11.247-26.862-24.041-29.727v-.969c23.274 1.219 40.322 15.38 40.316 31.582-.006 18.499-20.068 31.692-44.811 31.673-24.742-.017-44.686-14.226-44.68-31.736.007-18.371 17.434-31.636 47.135-31.615l-.008 22.822-7.021-.144c-15.045.52-32.47 7.07-32.473 15.884-.004 9.696 16.535 21.363 36.394 21.377 16.063.011 29.183-11.635 29.189-29.147z"/><path fill="#221F20" d="M47.035 57.368c-8.525-.614-19.486-6.302-19.482-16.096.004-9.696 9.344-16.72 19.494-17.099l-.012 33.195z"/><path stroke="#221F20" stroke-width=".5" d="M47.035 57.368c-8.525-.614-19.486-6.302-19.482-16.096.004-9.696 9.344-16.72 19.494-17.099l-.012 33.195z"/><path fill="#221F20" d="M180.069 13.325l-.448 2.521c-1.165-.392-12.298-2.999-12.458 5.282-.129 6.631 9.999 5.818 12.319 5.201l.259 2.749c-7.613 2.126-17.728-.195-17.933-8.018-.237-9.018 13.139-10.133 18.261-7.735"/><path stroke="#221F20" stroke-width=".5" d="M180.069 13.325l-.448 2.521c-1.165-.392-12.298-2.999-12.458 5.282-.129 6.631 9.999 5.818 12.319 5.201l.259 2.749c-7.613 2.126-17.728-.195-17.933-8.018-.237-9.018 13.139-10.133 18.261-7.735z"/><path fill="#221F20" d="M187.935 29.535l.005-14.203-6.839-.005v-2.711l18.389.013-.001 2.711-6.71-.005-.005 14.204z"/><path stroke="#221F20" stroke-width=".5" d="M187.935 29.535l.005-14.203-6.839-.005v-2.711l18.389.013-.001 2.711-6.71-.005-.005 14.204z"/><path fill="#221F20" d="M146.924 12.467l13.56.009v2.836l-9.035-.006-.005 14.074-4.526-.004z"/><path stroke="#221F20" stroke-width=".5" d="M146.924 12.467l13.56.009v2.836l-9.035-.006-.005 14.074-4.526-.004z"/><path fill="#221F20" d="M151.023 19.595l8.928.007-.002 2.835-8.927-.006z"/><path stroke="#221F20" stroke-width=".5" d="M151.023 19.595l8.928.007-.002 2.835-8.927-.006z"/><path fill="#221F20" d="M151.02 26.544l9.389.006-.001 2.836-9.389-.007z"/><path stroke="#221F20" stroke-width=".5" d="M151.02 26.544l9.389.006-.001 2.836-9.389-.007z"/><path fill="#221F20" d="M116.582 29.319l.006-16.838 5.066.004-.006 16.838z"/><path stroke="#221F20" stroke-width=".5" d="M116.582 29.319l.006-16.838 5.066.004-.006 16.838z"/><path fill="#221F20" d="M93.304 29.445l.007-16.838 5.066.003-.007 16.839z"/><path stroke="#221F20" stroke-width=".5" d="M93.304 29.445l.007-16.838 5.066.003-.007 16.839z"/><path fill="#221F20" d="M96.67 29.447l1.029-2.729 3.791-.103c4.393.002 7.051-2.442 7.052-5.668.001-3.9-3.541-5.746-6.269-5.747l-4.606-.251-.637-2.34 5.35.004c6.154.004 11.477 3.304 11.476 8.498-.002 5.229-5.328 8.345-11.482 8.34l-5.704-.004z"/><path stroke="#221F20" stroke-width=".5" d="M96.67 29.447l1.029-2.729 3.791-.103c4.393.002 7.051-2.442 7.052-5.668.001-3.9-3.541-5.746-6.269-5.747l-4.606-.251-.637-2.34 5.35.004c6.154.004 11.477 3.304 11.476 8.498-.002 5.229-5.328 8.345-11.482 8.34l-5.704-.004z"/><path fill="#221F20" d="M93.297 50.601l.006-16.838 5.066.004-.005 16.838z"/><path stroke="#221F20" stroke-width=".5" d="M93.297 50.601l.006-16.838 5.066.004-.005 16.838z"/><path fill="#221F20" d="M96.663 50.603l1.028-2.729 3.792-.104c4.393.004 7.051-2.44 7.051-5.666.001-3.9-3.541-5.746-6.268-5.748l-4.606-.251-.637-2.339 5.349.004c6.155.004 11.478 3.305 11.476 8.498-.001 5.229-5.327 8.345-11.481 8.341l-5.704-.005z"/><path stroke="#221F20" stroke-width=".5" d="M96.663 50.603l1.028-2.729 3.792-.104c4.393.004 7.051-2.44 7.051-5.666.001-3.9-3.541-5.746-6.268-5.748l-4.606-.251-.637-2.339 5.349.004c6.155.004 11.478 3.305 11.476 8.498-.001 5.229-5.327 8.345-11.481 8.341l-5.704-.005z"/><path fill="#221F20" d="M144.493 50.715l.006-18.257 4.889.004-.007 18.257z"/><path stroke="#221F20" stroke-width=".5" d="M144.493 50.715l.006-18.257 4.889.004-.007 18.257z"/><path fill="#221F20" d="M171.525 50.876l.005-12.514 4.889.004-.005 12.513z"/><path stroke="#221F20" stroke-width=".5" d="M171.525 50.876l.005-12.514 4.889.004-.005 12.513z"/><path fill="#221F20" d="M171.532 32.513l4.888.003-.001 3.227-4.889-.004z"/><path stroke="#221F20" stroke-width=".5" d="M171.532 32.513l4.888.003-.001 3.227-4.889-.004z"/><path fill="#221F20" d="M188.036 47.59l.004-12.443 4.996.004-.004 11.876c0 1.595 2.727 2.094 4.287 1.563l-.001 2.765c-3.366.777-9.282.666-9.281-3.765"/><path stroke="#221F20" stroke-width=".5" d="M188.036 47.59l.004-12.443 4.996.004-.004 11.876c0 1.595 2.727 2.094 4.287 1.563l-.001 2.765c-3.366.777-9.282.666-9.281-3.765z"/><path fill="#221F20" d="M184.142 41.03l.001-2.659 13.038.009-.001 2.659z"/><path stroke="#221F20" stroke-width=".5" d="M184.142 41.03l.001-2.659 13.038.009-.001 2.659z"/><path fill="#221F20" d="M124.442 42.871l7.865-.014c-.212-1.899-1.628-2.964-3.755-2.965-2.303-.001-4.039.882-4.111 2.979zm-.036 2.335c.246 4.857 10.025 3.127 11.337 1.745l-.001 2.943c-1.949.92-4.459 1.025-7.245 1.023-5.078-.004-9.194-2.594-9.192-6.813.002-3.759 3.794-6.732 9.196-6.729 4.163.003 8.768 1.956 8.447 7.84l-12.542-.009z"/><path stroke="#221F20" stroke-width=".5" d="M124.442 42.871l7.865-.014c-.212-1.899-1.628-2.964-3.755-2.965-2.303-.001-4.039.882-4.111 2.979zm-.036 2.335c.246 4.857 10.025 3.127 11.337 1.745l-.001 2.943c-1.949.92-4.459 1.025-7.245 1.023-5.078-.004-9.194-2.594-9.192-6.813.002-3.759 3.794-6.732 9.196-6.729 4.163.003 8.768 1.956 8.447 7.84l-12.542-.009z"/><path fill="#221F20" d="M130.969 19.759l3.295.002c1.311.001 3.189-.849 3.189-2.249.001-1.542-1.551-2.287-3.117-2.289l-3.366-.001-.001 4.537zm11.551-2.828c-.001 4.006-3.771 4.307-3.969 4.322.601.391 1.14 1.165 1.169 1.206l3.88 6.914-5.287-.004-2.668-5.034c-.036-.087-.708-1.737-2.769-1.704l-1.872-.001-.002 6.736-5.022-.004.006-16.91 9.08.006c2.542.002 7.456.644 7.455 4.472z"/><path stroke="#221F20" stroke-width=".5" d="M130.969 19.759l3.295.002c1.311.001 3.189-.849 3.189-2.249.001-1.542-1.551-2.287-3.117-2.289l-3.366-.001-.001 4.537zm11.551-2.828c-.001 4.006-3.771 4.307-3.969 4.322.601.391 1.14 1.165 1.169 1.206l3.88 6.914-5.287-.004-2.668-5.034c-.036-.087-.708-1.737-2.769-1.704l-1.872-.001-.002 6.736-5.022-.004.006-16.91 9.08.006c2.542.002 7.456.644 7.455 4.472z"/><path fill="#221F20" d="M149.349 44.568c-.001 2.125 1.918 3.848 4.286 3.849 2.368.002 4.287-1.719 4.288-3.843.001-2.125-1.918-3.848-4.286-3.849-2.367-.002-4.287 1.718-4.288 3.843m-1.453-.142c.001-4.662 3.085-6.539 7.495-6.535 4.12.002 7.423 2.203 7.42 6.546-.001 4.236-3.341 6.75-7.46 6.748-4.765-.004-7.457-2.026-7.456-6.758"/><path stroke="#221F20" stroke-width=".5" d="M149.349 44.568c-.001 2.125 1.918 3.848 4.286 3.849 2.368.002 4.287-1.719 4.288-3.843.001-2.125-1.918-3.848-4.286-3.849-2.367-.002-4.287 1.718-4.288 3.843zm-1.453-.142c.001-4.662 3.085-6.539 7.495-6.535 4.12.002 7.423 2.203 7.42 6.546-.001 4.236-3.341 6.75-7.46 6.748-4.765-.004-7.457-2.026-7.456-6.758z"/></g></svg>