<svg xmlns="http://www.w3.org/2000/svg" width="598" height="183" viewBox="0 0 598 183">
    <g fill="none" fill-rule="evenodd">
        <g fill="#8D1D82">
            <path d="M91.46 0C40.948 0 0 40.913 0 91.383c0 50.472 40.948 91.388 91.46 91.388 50.513 0 91.46-40.916 91.46-91.388C182.92 40.913 141.973 0 91.46 0m0 15.022c42.143 0 76.427 34.256 76.427 76.361 0 42.107-34.284 76.365-76.427 76.365-42.143 0-76.427-34.258-76.427-76.365 0-42.105 34.284-76.36 76.427-76.36"/>
            <path d="M37.464 60.717h51.954v15.758H55.462v11.03h30.707v14.924H55.462v23.174H37.464zM123.005 91.862c6.03 0 9.649-2.967 9.649-7.695v-.183c0-5.191-3.804-7.788-9.74-7.788h-11.877v15.666h11.968zM93.04 60.716h30.705c9.93 0 16.793 2.595 21.155 6.953 3.801 3.798 5.751 8.712 5.751 15.11v.184c0 10.011-5.287 16.594-13.359 20.02l15.492 22.62h-20.688l-13.08-19.653h-7.979v19.652H93.04V60.716z"/>
        </g>
        <path fill="#8D1D82" d="M218.621 44.06h28.175v2.745h-25.203V63.19h22.631v2.745h-22.63v18.097h-2.973zM252.631 67.415V44.061h2.972v23.068c0 9.424 5.086 14.85 13.545 14.85 8.116 0 13.317-4.914 13.317-14.564V44.061h2.97v23.014c0 11.478-6.685 17.587-16.402 17.587-9.6 0-16.402-6.05-16.402-17.247M293.85 44.06h2.8l27.605 34.778V44.06h2.857v39.972h-2.229l-28.176-35.513v35.513h-2.857zM349.464 81.292c11.142 0 18.17-7.594 18.17-17.13v-.117c0-9.477-7.028-17.24-18.17-17.24h-10.348v34.487h10.348zm-13.317-37.231h13.317c12.572 0 21.258 8.624 21.258 19.874v.11c0 11.25-8.686 19.987-21.258 19.987h-13.317V44.061zM394.449 64.791c6.689 0 11.66-3.37 11.66-9.137v-.113c0-5.367-4.228-8.737-11.487-8.737h-13.659v17.987h13.486zm-16.455-20.729h16.8c4.917 0 8.859 1.543 11.257 3.939 1.884 1.887 3.03 4.569 3.03 7.423v.117c0 6.681-4.973 10.506-11.714 11.419l13.2 17.071h-3.773L394.05 67.473h-13.088V84.03h-2.97V44.062zM443.552 70.16l-10.517-23.128-10.572 23.127h21.089zm-11.89-26.385h2.862l18.625 40.257h-3.255l-5.086-11.191h-23.604l-5.088 11.191h-3.085l18.63-40.257zM459.16 84.032h2.974V44.06h-2.974zM468.994 78.209l1.943-2.227c4.4 4.051 8.459 5.939 14.344 5.939 6.002 0 10.115-3.368 10.115-7.939v-.115c0-4.224-2.229-6.68-11.315-8.505-9.598-1.939-13.489-5.199-13.489-11.248v-.117c0-5.938 5.431-10.507 12.863-10.507 5.827 0 9.654 1.602 13.713 4.854l-1.884 2.342c-3.774-3.257-7.547-4.51-11.946-4.51-5.885 0-9.771 3.367-9.771 7.536v.117c0 4.224 2.17 6.796 11.655 8.737 9.258 1.88 13.149 5.192 13.149 11.016v.117c0 6.451-5.546 10.905-13.259 10.905-6.405 0-11.318-2.112-16.118-6.395M505.69 84.032h2.975V44.06h-2.974zM518.097 44.06h2.8l27.605 34.778V44.06h2.857v39.972h-2.229l-28.176-35.513v35.513h-2.857zM558.625 64.162v-.117c0-10.788 7.83-20.668 19.776-20.668 6.514 0 10.627 1.941 14.628 5.252l-1.943 2.227c-3.143-2.74-6.802-4.796-12.856-4.796-9.72 0-16.518 8.225-16.518 17.875v.11c0 10.34 6.457 18.046 17.144 18.046 5.086 0 9.83-2.11 12.745-4.569V66.045h-13.37v-2.74h16.228v15.416c-3.6 3.199-9.2 6-15.715 6-12.63 0-20.12-9.309-20.12-20.559"/>
        <path fill="#575756" d="M237.916 115.825c4.803 0 7.559-2.562 7.559-6.341v-.125c0-4.224-2.946-6.404-7.75-6.404h-9.8v12.87h9.991zm-19.858-21.762h20.5c5.7 0 10.118 1.597 13.067 4.543 2.498 2.494 3.841 6.014 3.841 10.24v.13c0 7.233-3.907 11.774-9.607 13.886l10.955 16.001h-11.531l-9.61-14.338h-7.748v14.338h-9.867v-44.8zM261.146 94.063h33.82v8.77h-24.023v9.088h21.143v8.768h-21.143v9.405h24.344v8.77h-34.141zM298.852 116.592v-.128c0-12.737 9.93-23.167 23.507-23.167 8.077 0 12.945 2.173 17.618 6.142l-6.21 7.487c-3.462-2.88-6.54-4.546-11.724-4.546-7.177 0-12.874 6.337-12.874 13.953v.13c0 8.192 5.634 14.208 13.575 14.208 3.59 0 6.794-.897 9.288-2.686v-6.402h-9.926v-8.51h19.475v19.455c-4.613 3.904-10.955 7.103-19.154 7.103-13.966 0-23.575-9.791-23.575-23.039M347.128 119.662V94.064h9.865v25.343c0 7.297 3.654 11.072 9.673 11.072 6.02 0 9.672-3.646 9.672-10.756V94.064h9.868v25.277c0 13.569-7.625 20.226-19.67 20.226-12.039 0-19.408-6.718-19.408-19.905M393.033 94.063h9.865v35.84h22.357v8.96h-32.222zM455.212 120.113l-5.958-14.528-5.955 14.528h11.913zM444.834 93.74h9.096l19.216 45.124h-10.312l-4.1-10.051h-18.96l-4.1 10.05h-10.059l19.219-45.123zM481.516 103.148h-13.642v-9.086h37.153v9.086H491.38v35.714h-9.865zM542.802 116.592v-.128c0-7.679-5.639-14.084-13.58-14.084-7.947 0-13.453 6.274-13.453 13.953v.13c0 7.68 5.637 14.084 13.578 14.084 7.945 0 13.455-6.276 13.455-13.955m-37.35 0v-.128c0-12.737 10.057-23.167 23.895-23.167 13.84 0 23.768 10.301 23.768 23.036v.13c0 12.735-10.058 23.168-23.893 23.168s-23.77-10.304-23.77-23.039M578.516 115.825c4.805 0 7.56-2.562 7.56-6.341v-.125c0-4.224-2.948-6.404-7.752-6.404h-9.8v12.87h9.992zM558.66 94.063h20.498c5.7 0 10.12 1.597 13.069 4.543 2.496 2.494 3.844 6.014 3.844 10.24v.13c0 7.233-3.907 11.774-9.61 13.886l10.955 16.001h-11.531l-9.612-14.338h-7.749v14.338h-9.864v-44.8z"/>
    </g>
</svg>