<svg xmlns="http://www.w3.org/2000/svg" xmlns:xlink="http://www.w3.org/1999/xlink" viewBox="0 0 63.7 64.3"><path fill="#fff" d="M30.7.3h32.8v63.8H30.7z"/><path fill="#161615" d="M30.7 64.1h.2V.5h32.3v63.3H30.7v.3h.2-.2v.2h33V0H30.4v64.3h.3z"/><path fill="#161615" d="M.3.3h30.4v63.8H.3z"/><path fill="#161615" d="M.3 64.1h.2V.5h29.9v63.3H.3v.3h.2-.2v.2h30.6V0H0v64.3h.3z"/><path fill="#161615" d="M.2 64.1h30.5V.2H.2v63.9zM.3.3h30.3v63.8H.3V.3z"/><defs><path id="a" d="M.2.2h63.4v64H.2z"/></defs><clipPath id="b"><use overflow="visible" xlink:href="#a"/></clipPath><path fill="#fff" d="M10.2 55.1c-.2-.3-.4-.5-.7-.7-.5-.3-1-.5-1.6-.5-1.5 0-2.8 1.1-2.8 2.9 0 1.9 1.4 3 2.8 3 .7 0 1.3-.2 1.8-.6.5-.4.8-.9.9-1.4H7.2v-1H12c0 .5-.1 1.2-.3 1.7-.7 1.5-2.3 2.3-3.8 2.3-2.3 0-4.1-1.8-4.1-4.1s1.8-4 4.1-4c1.7 0 3.2 1 3.7 2.4h-1.4z" clip-path="url(#b)"/><path fill="#fff" d="M13.7 60.6h-1.3l3.2-7.8h1.1l3.1 7.8h-1.3l-.7-1.8h-3.3l-.8 1.8zm2.3-6.3l-1.3 3.5h2.6L16 54.3zm4.9 6.3v-7.7h1.7l2.4 6 2.4-6h1.7v7.7h-1.2l.1-6.5-2.6 6.5h-.8L22 54.1l.1 6.5z"/><defs><path id="c" d="M.2.2h63.4v64H.2z"/></defs><clipPath id="d"><use overflow="visible" xlink:href="#c"/></clipPath><path fill="#161615" d="M35.8 60.8c-2.3 0-4.1-1.8-4.1-4 0-2.3 1.8-4 4.1-4 1.4 0 2.6.7 3.4 1.8.3.4.5.8.5 1.3h-2.1c-.3-.8-1-1.4-1.9-1.4-1.3 0-2.1 1.1-2.1 2.3 0 1.2.8 2.3 2.1 2.3.9 0 1.5-.5 1.9-1.3h2.1c-.5 1.8-2.1 3-3.9 3" clip-path="url(#d)"/><path fill="#161615" d="M45.7 60.6l-.4-1.1h-2.7l-.4 1.1H40l3.1-7.8h1.6l3.1 7.8h-2.1zM44 55.3l-.8 2.7h1.6l-.8-2.7z"/><defs><path id="e" d="M.2.2h63.4v64H.2z"/></defs><clipPath id="f"><use overflow="visible" xlink:href="#e"/></clipPath><path fill="#161615" d="M52.6 60.6l-1.8-2.5v2.5h-1.9v-7.8h2.5c.8 0 1.7 0 2.4.6.6.5 1 1.3 1 2.1 0 1.2-.7 2.2-1.9 2.4l2.1 2.6-2.4.1zm-1.1-6h-.7v2.2h.7c.7 0 1.3-.3 1.3-1.1s-.6-1.1-1.3-1.1" clip-path="url(#f)"/><path fill="#161615" d="M56.1 60.6v-7.7h4.4v1.7H58v1.2h2.4v1.8H58v1.3h2.5v1.7z"/><defs><path id="g" d="M.2.2h63.4v64H.2z"/></defs><clipPath id="h"><use overflow="visible" xlink:href="#g"/></clipPath><path fill="#fff" d="M30.5 41.5c-6.7 0-13.6-5-13.6-14.4C16.9 18 23.8 13 30.5 13h.2V5.6c-12.2 0-22.1 9.1-22.1 21.6 0 12.1 9.5 21.8 22 21.8h.1v-7.4l-.2-.1" clip-path="url(#h)"/><defs><path id="i" d="M.2.2h63.4v64H.2z"/></defs><clipPath id="j"><use overflow="visible" xlink:href="#i"/></clipPath><path fill="#161615" d="M38.5 15.7c1.2 1 2.3 2.1 3.1 3.4h9.5c-2.7-7.6-11-13.6-20.4-13.6V13c3.1 0 5.7 1.1 7.8 2.7" clip-path="url(#j)"/><defs><path id="k" d="M.2.2h63.4v64H.2z"/></defs><clipPath id="l"><use overflow="visible" xlink:href="#k"/></clipPath><path fill="#161615" d="M50.9 36.4c1.6-3.5 2-7.7 1.9-10.5H36.4v6.8h6.7c-.6 2.5-2.1 4.7-4.3 6.3-2.1 1.6-4.9 2.5-8.1 2.5v7.4c7.5 0 16.4-3.9 20.2-12.5" clip-path="url(#l)"/></svg>